<?xml version="1.0" encoding="UTF-8" standalone="no"?>
<svg
   viewBox="0 0 1024 768.00001"
   width="1024"
   height="768"
   version="1.1"
   id="svg18"
   sodipodi:docname="heater.svg"
   inkscape:version="1.3.2 (091e20ef0f, 2023-11-25, custom)"
   inkscape:export-filename="heater.png"
   inkscape:export-xdpi="96"
   inkscape:export-ydpi="96"
   xmlns:inkscape="http://www.inkscape.org/namespaces/inkscape"
   xmlns:sodipodi="http://sodipodi.sourceforge.net/DTD/sodipodi-0.dtd"
   xmlns="http://www.w3.org/2000/svg"
   xmlns:svg="http://www.w3.org/2000/svg">
  <sodipodi:namedview
     id="namedview18"
     pagecolor="#ffffff"
     bordercolor="#666666"
     borderopacity="1.0"
     inkscape:showpageshadow="2"
     inkscape:pageopacity="0.0"
     inkscape:pagecheckerboard="0"
     inkscape:deskcolor="#d1d1d1"
     showgrid="false"
     inkscape:zoom="1.0115378"
     inkscape:cx="495.28552"
     inkscape:cy="384.06871"
     inkscape:window-width="2048"
     inkscape:window-height="1203"
     inkscape:window-x="0"
     inkscape:window-y="0"
     inkscape:window-maximized="1"
     inkscape:current-layer="g18">
    <inkscape:grid
       id="grid18"
       units="px"
       originx="0"
       originy="0"
       spacingx="0.99999998"
       spacingy="1"
       empcolor="#0099e5"
       empopacity="0.30196078"
       color="#0099e5"
       opacity="0.14901961"
       empspacing="5"
       dotted="false"
       gridanglex="30"
       gridanglez="30"
       visible="false" />
  </sodipodi:namedview>
  <desc
     id="desc1">heater-Sketch.dxf - scale = 1.000000, origin = (0.000000, 0.000000), method = manual</desc>
  <defs
     id="defs4">
    <marker
       style="overflow:visible"
       id="marker27"
       refX="0"
       refY="0"
       orient="auto-start-reverse"
       inkscape:stockid="Triangle arrow"
       markerWidth="1"
       markerHeight="1"
       viewBox="0 0 1 1"
       inkscape:isstock="true"
       inkscape:collect="always"
       preserveAspectRatio="xMidYMid">
      <path
         transform="scale(0.5)"
         style="fill:context-stroke;fill-rule:evenodd;stroke:context-stroke;stroke-width:1pt"
         d="M 5.77,0 -2.88,5 V -5 Z"
         id="path27" />
    </marker>
    <marker
       style="overflow:visible"
       id="Triangle"
       refX="0"
       refY="0"
       orient="auto-start-reverse"
       inkscape:stockid="Triangle arrow"
       markerWidth="1"
       markerHeight="1"
       viewBox="0 0 1 1"
       inkscape:isstock="true"
       inkscape:collect="always"
       preserveAspectRatio="xMidYMid">
      <path
         transform="scale(0.5)"
         style="fill:context-stroke;fill-rule:evenodd;stroke:context-stroke;stroke-width:1pt"
         d="M 5.77,0 -2.88,5 V -5 Z"
         id="path135" />
    </marker>
    <marker
       id="DistanceX"
       orient="auto"
       refX="0"
       refY="0"
       style="overflow:visible">
      <path
         d="M 3,-3 -3,3 M 0,-5 V 5"
         style="stroke:#000000;stroke-width:0.5"
         id="path1" />
    </marker>
    <pattern
       id="Hatch"
       patternUnits="userSpaceOnUse"
       width="8"
       height="8"
       x="0"
       y="0">
      <path
         d="M8 4 l-4,4"
         stroke="#000000"
         stroke-width="0.25"
         linecap="square"
         id="path2" />
      <path
         d="M6 2 l-4,4"
         stroke="#000000"
         stroke-width="0.25"
         linecap="square"
         id="path3" />
      <path
         d="M4 0 l-4,4"
         stroke="#000000"
         stroke-width="0.25"
         linecap="square"
         id="path4" />
    </pattern>
    <symbol
       id="*MODEL_SPACE" />
    <symbol
       id="*PAPER_SPACE" />
    <marker
       style="overflow:visible"
       id="marker27-2-6"
       refX="0"
       refY="0"
       orient="auto-start-reverse"
       inkscape:stockid="Triangle arrow"
       markerWidth="1"
       markerHeight="1"
       viewBox="0 0 1 1"
       inkscape:isstock="true"
       inkscape:collect="always"
       preserveAspectRatio="xMidYMid">
      <path
         transform="scale(0.5)"
         style="fill:context-stroke;fill-rule:evenodd;stroke:context-stroke;stroke-width:1pt"
         d="M 5.77,0 -2.88,5 V -5 Z"
         id="path27-7-2" />
    </marker>
    <marker
       style="overflow:visible"
       id="marker27-2-6-7"
       refX="0"
       refY="0"
       orient="auto-start-reverse"
       inkscape:stockid="Triangle arrow"
       markerWidth="1"
       markerHeight="1"
       viewBox="0 0 1 1"
       inkscape:isstock="true"
       inkscape:collect="always"
       preserveAspectRatio="xMidYMid">
      <path
         transform="scale(0.5)"
         style="fill:context-stroke;fill-rule:evenodd;stroke:context-stroke;stroke-width:1pt"
         d="M 5.77,0 -2.88,5 V -5 Z"
         id="path27-7-2-9" />
    </marker>
  </defs>
  <g
     inkscape:groupmode="layer"
     inkscape:label="0"
     id="g4" />
  <g
     inkscape:groupmode="layer"
     inkscape:label="none"
     id="g5" />
  <g
     inkscape:groupmode="layer"
     inkscape:label="Sketch"
     id="g18">
    <rect
       style="fill:#ffffff;fill-opacity:1;stroke:none;stroke-width:1.88976;stroke-linecap:round;stroke-linejoin:bevel;stroke-dasharray:none;stroke-dashoffset:0;stroke-opacity:1"
       id="rect28"
       width="1024"
       height="768"
       x="0"
       y="0" />
    <path
       id="path32"
       style="fill:none;stroke:#000000;stroke-width:1.88976;stroke-dasharray:none"
       d="m 732.22454,572.79006 a 24.566929,24.566929 0 0 0 -49.13385,0 m -3.77953,3.7795 a 3.779528,3.779528 0 0 0 3.77953,-3.7795 m -60.47209,3.7763 h 56.693 m -60.47288,-3.7763 a 3.779528,3.779528 0 0 0 3.77953,3.7795 m -3.77953,-3.7795 a 24.566929,24.566929 0 0 0 -24.56693,-24.5669 m 10e-6,0 h -94.4882 m -94.4882,0 h 94.4882 m -94.48819,0 a 24.566929,24.566929 0 0 0 -24.56693,24.5669 m -3.77953,3.7795 a 3.779528,3.779528 0 0 0 3.77953,-3.7795 m -3.77988,3.7763 h -56.693 m -3.77909,-3.7763 a 3.779528,3.779528 0 0 0 3.77953,3.7795 m -3.77953,-3.7795 a 24.566929,24.566929 0 0 0 -49.13385,0 m -3.77953,3.7795 a 3.779528,3.779528 0 0 0 3.77953,-3.7795 m -3.77906,3.7763 h -69.922 m -3.77926,-3.7763 a 3.779528,3.779528 0 0 0 3.77953,3.7795 m -3.77927,-3.7832 v -415.744 m 3.77927,-3.77986 a 3.779528,3.779528 0 0 0 -3.77953,3.77953 m 3.77926,-3.77967 h 278.0487 m 3.74574,3.27573 a 3.779528,3.779528 0 0 0 -3.74578,-3.27559 m 3.74575,3.27548 a 24.566929,24.566929 0 0 0 24.34759,21.29145 m 0,0 a 24.566929,24.566929 0 0 0 24.34758,-21.29134 m 3.74576,-3.27559 a 3.779528,3.779528 0 0 0 -3.74578,3.27561 m 281.79448,-3.27575 H 527.8769 m 281.82794,3.77967 a 3.779528,3.779528 0 0 0 -3.7795,-3.77953 m 3.7793,419.52386 v -415.744 m -3.7793,419.5272 a 3.779528,3.779528 0 0 0 3.7795,-3.7795 m -73.70124,3.7763 h 69.92204 m -73.7011,-3.7763 a 3.779528,3.779528 0 0 0 3.77953,3.7795" />
    <path
       style="fill:none;stroke:#ff0000;stroke-width:1.51181;stroke-linecap:butt;stroke-linejoin:miter;stroke-dasharray:none;stroke-opacity:1"
       d="m 189.8626,141.29785 -0.69881,-52.839572 h 621.50835 l -0.9675,52.839572"
       id="path18"
       sodipodi:nodetypes="cccc" />
    <text
       xml:space="preserve"
       style="font-size:37.3333px;line-height:1.25;font-family:Arial;-inkscape-font-specification:Arial;fill:#ff0000;fill-opacity:1"
       x="429.56561"
       y="82.022705"
       id="text18"><tspan
         sodipodi:role="line"
         x="429.56561"
         y="82.022705"
         id="tspan19">164mm</tspan></text>
    <text
       xml:space="preserve"
       style="font-size:37.3333px;line-height:1.25;font-family:Arial;-inkscape-font-specification:Arial;fill:#ff0000;fill-opacity:1"
       x="876.65997"
       y="364.97845"
       id="text18-7"><tspan
         sodipodi:role="line"
         x="876.65997"
         y="364.97845"
         id="tspan23">112mm</tspan></text>
    <text
       xml:space="preserve"
       style="font-size:37.3333px;line-height:1.25;font-family:Arial;-inkscape-font-specification:Arial;fill:#ff0000;fill-opacity:1"
       x="436.38358"
       y="655.99878"
       id="text18-3"><tspan
         sodipodi:role="line"
         x="436.38358"
         y="655.99878"
         id="tspan19-6">50mm</tspan></text>
    <text
       xml:space="preserve"
       style="font-size:37.3333px;line-height:1.25;font-family:Arial;-inkscape-font-specification:Arial;fill:#ff0000;fill-opacity:1"
       x="438.04807"
       y="724.76294"
       id="text18-3-9"><tspan
         sodipodi:role="line"
         x="438.04807"
         y="724.76294"
         id="tspan19-6-1">110mm</tspan></text>
    <text
       xml:space="preserve"
       style="font-size:37.3333px;line-height:1.25;font-family:Arial;-inkscape-font-specification:Arial;fill:#ff0000;fill-opacity:1"
       x="654.12317"
       y="727.87946"
       id="text18-3-9-1"><tspan
         sodipodi:role="line"
         x="654.12317"
         y="727.87946"
         id="tspan28">Power leads exit</tspan></text>
    <path
       style="fill:none;stroke:#ff0000;stroke-width:1.00157;stroke-linecap:butt;stroke-linejoin:miter;stroke-dasharray:32.0504, 4.0063, 2.00315, 4.0063;stroke-dashoffset:0;stroke-opacity:1"
       d="M 499.7836,128.68328 V 577.06956"
       id="path20"
       sodipodi:nodetypes="cc" />
    <path
       style="fill:none;stroke:#ff0000;stroke-width:1.51181;stroke-linecap:butt;stroke-linejoin:miter;stroke-dasharray:none;stroke-opacity:1"
       d="m 405.29541,577.47592 v 41.08045 l 189.40698,-0.35162 -0.43059,-40.72883"
       id="path21"
       sodipodi:nodetypes="cccc" />
    <path
       style="fill:none;stroke:#ff0000;stroke-width:1.51181;stroke-linecap:butt;stroke-linejoin:miter;stroke-dasharray:none;stroke-opacity:1"
       d="m 823.19843,153.26236 h 53.46153 v 423.4322 l -53.46153,-0.1282"
       id="path22"
       sodipodi:nodetypes="cccc" />
    <text
       xml:space="preserve"
       style="font-size:37.3333px;line-height:1.25;font-family:Arial;-inkscape-font-specification:Arial;fill:#ff0000;fill-opacity:1"
       x="556.97656"
       y="236.94296"
       id="text18-7-3"><tspan
         sodipodi:role="line"
         x="556.97656"
         y="236.94296"
         id="tspan24">⌀13mm</tspan></text>
    <text
       xml:space="preserve"
       style="font-size:37.3333px;line-height:1.25;font-family:Arial;-inkscape-font-specification:Arial;fill:#ff0000;fill-opacity:1"
       x="599.49207"
       y="446.15039"
       id="text18-7-3-6"><tspan
         sodipodi:role="line"
         x="599.49207"
         y="446.15039"
         id="tspan24-2">⌀13mm</tspan></text>
    <path
       style="fill:none;stroke:#ff0000;stroke-width:3.77953;stroke-linecap:butt;stroke-linejoin:miter;stroke-dasharray:none;stroke-opacity:1;marker-end:url(#marker27)"
       d="m 635.39615,462.60205 -27.89324,65.7009"
       id="path25"
       sodipodi:nodetypes="cc" />
    <text
       xml:space="preserve"
       style="font-size:37.3333px;line-height:1.25;font-family:Arial;-inkscape-font-specification:Arial;fill:#ff0000;fill-opacity:1"
       x="744.51886"
       y="645.48309"
       id="text18-7-3-6-0-6"><tspan
         sodipodi:role="line"
         x="744.51886"
         y="645.48309"
         id="tspan24-2-9-0">⌀2mm</tspan></text>
    <path
       style="fill:none;stroke:#ff0000;stroke-width:3.77953;stroke-linecap:butt;stroke-linejoin:miter;stroke-dasharray:none;stroke-opacity:1;marker-end:url(#marker27-2-6)"
       d="M 760.09178,610.73635 742.94325,589.69344"
       id="path25-3-6"
       sodipodi:nodetypes="cc" />
    <path
       style="fill:none;stroke:#ff0000;stroke-width:3.77953;stroke-linecap:butt;stroke-linejoin:miter;stroke-dasharray:none;stroke-opacity:1;marker-end:url(#marker27-2-6-7)"
       d="M 642.9461,702.13201 527.74529,573.21652"
       id="path25-3-6-2"
       sodipodi:nodetypes="cc" />
    <path
       style="fill:none;stroke:#ff0000;stroke-width:3.77953;stroke-linecap:butt;stroke-linejoin:miter;stroke-dasharray:none;stroke-opacity:1;marker-end:url(#Triangle)"
       d="M 551.32609,211.72182 524.03912,185.63001"
       id="path26" />
    <path
       style="fill:none;stroke:#ff0000;stroke-width:1.51181;stroke-linecap:butt;stroke-linejoin:miter;stroke-dasharray:none;stroke-opacity:1"
       d="M 290.99822,574.32178 V 678.13383 H 707.64446 V 573.7695"
       id="path28"
       sodipodi:nodetypes="cccc" />
  </g>
</svg>
